:SAMPLES-PER-SECOND 30
:FULLY-SPECIFIED
:DEGREES
734
root  73.0805 37.701 -5.85161 178.615 -45.0296 -175.82
RightUpLeg  -23.9633 -26.4771 8.88508
RightLeg  21.9112 -0.0711177 -0.0867036
RightFoot  -1.54379 0.560652 -6.65167
RightToes  -2.32831e-009 0 -3.6325e-017
Spine  11.3421 0.276596 3.36781
Spine1  2.27583 -1.18892 8.417
HEad  -4.09642 -1.77015 -9.09068
LeftShoulder1  -0.153172 4.01039 -24.0415
LeftArm  -6.29243 8.32333 -39.1488
LeftForeArm  39.0329 -50.5516 -10.6171
LeftHand  -0.0774856 7.30629 -2.12261
RightShoulder  -1.25262 -6.86852 30.7384
RightArm  22.6769 -10.444 31.1657
RightForeArm  8.65693 20.7564 4.50166
RightHand  0.109673 9.45398 0.456583
LeftUpLeg  4.54619 26.2999 -2.62249
LeftLeg  30.8577 3.73796 2.82232
LeftFoot  -11.6765 0.0332871 -9.33077
LeftToes  8.91272e-011 -1.70619e-011 7.36378e-012
735
root  74.2143 37.4817 -5.77531 177.315 -49.6358 -173.384
RightUpLeg  -26.4887 -28.1597 12.208
RightLeg  21.9361 -2.48523 -1.33101
RightFoot  -1.12327 0.666485 -7.52351
RightToes  -2.32831e-009 0 -3.6325e-017
Spine  10.9714 -0.394072 1.03151
Spine1  0.966429 -2.75641 11.7684
HEad  -4.66362 -1.50488 -9.20837
LeftShoulder1  -0.36074 4.66817 -24.519
LeftArm  -7.52525 6.8648 -39.3972
LeftForeArm  39.7021 -53.3318 -11.8482
LeftHand  -0.0482859 7.04371 -0.903999
RightShoulder  -1.12566 -6.5963 29.8609
RightArm  22.636 -14.2587 29.8145
RightForeArm  8.7401 21.8335 4.41625
RightHand  0.0542555 9.86829 0.00321354
LeftUpLeg  8.94484 26.3154 -1.66567
LeftLeg  22.8527 5.84674 2.61266
LeftFoot  -15.8799 -0.248109 -9.25147
LeftToes  8.91272e-011 -1.70619e-011 7.36378e-012
736
root  75.4481 37.2585 -5.61859 176.429 -54.9997 -172.782
RightUpLeg  -28.6979 -29.8518 13.3035
RightLeg  22.7417 -5.67479 -2.84249
RightFoot  -1.07111 0.700719 -7.85377
RightToes  -2.32831e-009 0 -3.6325e-017
Spine  12.5168 -1.34078 -2.54752
Spine1  -0.522395 -4.41307 14.2187
HEad  -5.39369 0.0787694 -7.84036
LeftShoulder1  -0.726064 5.77591 -25.7226
LeftArm  -8.17571 4.42594 -39.2255
LeftForeArm  38.9763 -56.2388 -13.4412
LeftHand  0.0337673 8.19744 3.12928
RightShoulder  -0.959969 -6.17723 29.3527
RightArm  21.7769 -16.803 29.425
RightForeArm  8.51384 21.5932 4.41104
RightHand  0.0886875 9.86762 0.265257
LeftUpLeg  11.3741 18.8641 -2.72518
LeftLeg  15.2401 13.7737 2.17561
LeftFoot  -21.582 -0.326896 -5.05237
LeftToes  8.91272e-011 -1.70619e-011 7.36378e-012
737
root  76.6678 36.9473 -5.43562 177.188 -59.0208 -175.684
RightUpLeg  -30.1945 -29.2828 10.9288
RightLeg  26.0108 -9.05605 -5.01254
RightFoot  -1.64279 0.574948 -6.89337
RightToes  -2.32831e-009 0 -3.6325e-017
Spine  14.3778 -0.866162 -6.64297
Spine1  0.165019 -4.55161 14.8022
HEad  -7.20645 -1.71605 -6.27034
LeftShoulder1  -0.653175 5.48771 -26.7058
LeftArm  -8.40011 1.36921 -39.9405
LeftForeArm  41.2631 -58.2928 -14.495
LeftHand  -0.0416926 7.68018 0.0151527
RightShoulder  -1.04942 -6.40538 29.6315
RightArm  19.3329 -18.8036 29.9722
RightForeArm  9.77091 20.6303 4.29708
RightHand  0.119833 9.86556 0.520494
LeftUpLeg  12.4966 9.35916 -5.88553
LeftLeg  12.512 20.9815 1.64074
LeftFoot  -25.0129 -0.0372064 -1.51243
LeftToes  8.91272e-011 -1.70619e-011 7.36378e-012
738
root  77.8203 36.6926 -5.22065 -178.967 -62.995 179.755
RightUpLeg  -32.7836 -27.3216 7.95575
RightLeg  28.8538 -11.4321 -6.95145
RightFoot  -1.15191 0.502328 -5.69791
RightToes  -2.32831e-009 0 -3.6325e-017
Spine  14.7178 -0.79391 -8.78702
Spine1  0.87717 -4.27162 12.1901
HEad  -9.38649 -4.35186 -4.18739
LeftShoulder1  -0.384937 4.65566 -27.2011
LeftArm  -7.51244 -0.950926 -40.5361
LeftForeArm  41.3144 -59.6961 -15.4405
LeftHand  0.00300405 7.85051 2.01311
RightShoulder  -1.16305 -6.68219 30.0591
RightArm  16.7836 -21.06 31.8317
RightForeArm  11.1202 19.424 4.17391
RightHand  -0.00862526 8.48062 -0.588458
LeftUpLeg  10.7812 6.92076 -8.26157
LeftLeg  13.2962 19.5951 2.38245
LeftFoot  -28.1417 0.157291 -0.0688665
LeftToes  8.91272e-011 -1.70619e-011 7.36378e-012
739
root  78.7713 36.615 -4.98851 -174.51 -65.6921 174.462
RightUpLeg  -33.362 -22.7583 3.47077
RightLeg  29.9868 -10.2608 -6.55891
RightFoot  0.544794 0.499379 -4.79212
RightToes  -2.32831e-009 0 -3.6325e-017
Spine  15.0514 -0.565348 -8.84088
Spine1  1.49946 -3.15461 7.62689
HEad  -10.9286 -7.18982 -2.16806
LeftShoulder1  -0.429216 4.74405 -28.3503
LeftArm  -4.76243 -3.20363 -40.7798
LeftForeArm  41.9132 -60.0081 -15.6083
LeftHand  -0.00808937 7.55482 1.65861
RightShoulder  -1.33264 -7.05821 31.0086
RightArm  15.4448 -22.5949 33.0585
RightForeArm  9.98835 17.7003 4.32473
RightHand  -0.283647 6.0134 -3.19454
LeftUpLeg  8.5089 6.87736 -9.93157
LeftLeg  15.8559 17.5079 2.85451
LeftFoot  -28.6324 0.430739 1.70731
LeftToes  8.91272e-011 -1.70619e-011 7.36378e-012
740
root  79.4548 36.5937 -4.77277 -171.489 -66.164 170.075
RightUpLeg  -31.9916 -14.1555 -1.88026
RightLeg  30.4792 -6.4058 -4.29739
RightFoot  0.401318 0.0434144 -0.300371
RightToes  -2.32831e-009 0 -3.6325e-017
Spine  14.9815 0.127318 -7.8977
Spine1  3.39773 -1.4796 3.36361
HEad  -12.4958 -9.94795 -1.50873
LeftShoulder1  -0.541245 5.00198 -30.0113
LeftArm  -2.15578 -3.57462 -41.2121
LeftForeArm  41.3071 -58.8159 -14.8414
LeftHand  -0.0206757 7.6062 1.05111
RightShoulder  -1.3104 -6.97173 31.2744
RightArm  16.3677 -22.2541 34.4417
RightForeArm  11.9384 15.1086 4.91513
RightHand  -0.0429073 7.28303 -0.737954
LeftUpLeg  7.5711 8.42885 -10.9983
LeftLeg  17.7268 15.0121 2.85523
LeftFoot  -28.3522 0.438911 1.79316
LeftToes  8.91272e-011 -1.70619e-011 7.36378e-012
741
root  79.8292 36.6275 -4.54179 -172.919 -66.9998 170.72
RightUpLeg  -30.2121 -6.49214 -4.38686
RightLeg  30.4894 -1.42677 -1.13395
RightFoot  -1.35109 -0.435981 4.86479
RightToes  -2.32831e-009 0 -3.6325e-017
Spine  15.1982 0.130286 -4.46735
Spine1  3.4688 -0.206354 -0.822087
HEad  -11.7102 -11.4891 -1.16179
LeftShoulder1  -0.529216 4.93298 -30.8519
LeftArm  -0.130398 0.424264 -42.0615
LeftForeArm  40.7974 -56.7252 -13.566
LeftHand  -0.00947347 7.4715 1.00252
RightShoulder  -1.18363 -6.70472 30.4666
RightArm  18.1823 -22.6 35.3802
RightForeArm  14.7136 13.7634 5.58401
RightHand  0.0265683 6.23816 -0.0716365
LeftUpLeg  6.99147 8.17386 -11.0347
LeftLeg  19.3258 14.8509 3.99089
LeftFoot  -28.1415 0.458014 1.95353
LeftToes  8.91272e-011 -1.70619e-011 7.36378e-012
742
root  80.0289 36.7216 -4.42527 -175.135 -68.2083 173.149
RightUpLeg  -29.6914 -1.01679 -4.58639
RightLeg  31.8487 1.58003 0.830704
RightFoot  -1.96641 -0.745955 8.88303
RightToes  -2.32831e-009 0 -3.6325e-017
Spine  14.017 0.176156 -2.94982
Spine1  3.78253 0.222273 -1.69425
HEad  -10.6872 -12.2889 -1.37355
LeftShoulder1  -0.618828 5.12224 -32.0994
LeftArm  1.02218 5.28711 -42.4432
LeftForeArm  42.1037 -53.6454 -11.8321
LeftHand  -0.0435058 4.41722 -1.23021
RightShoulder  -1.16275 -6.68168 30.0743
RightArm  23.0754 -22.3434 34.4517
RightForeArm  17.208 15.5859 5.63331
RightHand  0.0956366 4.70228 0.81605
LeftUpLeg  6.35531 8.0164 -9.80687
LeftLeg  20.0079 13.791 3.99343
LeftFoot  -28.0095 0.494898 2.22779
LeftToes  8.91272e-011 -1.70619e-011 7.36378e-012
743
root  80.1664 36.8811 -4.39742 -175.959 -70.2547 174.671
RightUpLeg  -30.2715 1.28967 -3.85294
RightLeg  34.6917 2.45471 1.56739
RightFoot  -1.88235 -0.683134 8.08637
RightToes  -2.32831e-009 0 -3.6325e-017
Spine  11.8896 -0.0238122 -3.8839
Spine1  4.84937 -0.409388 -0.0691355
HEad  -10.027 -12.3926 -1.24185
LeftShoulder1  -0.687806 5.29285 -32.2848
LeftArm  2.43141 9.61013 -43.0173
LeftForeArm  42.7424 -49.2643 -9.79562
LeftHand  -0.203108 -0.0134638 5.05339
RightShoulder  -1.17762 -6.73546 29.9275
RightArm  26.2309 -21.7161 33.2098
RightForeArm  15.3722 17.8289 5.12877
RightHand  0.146538 4.2828 1.46385
LeftUpLeg  5.70557 7.38032 -8.83302
LeftLeg  19.7112 12.1295 3.57438
LeftFoot  -27.497 0.510804 2.43151
LeftToes  8.91272e-011 -1.70619e-011 7.36378e-012
744
root  80.2005 37.0116 -4.38609 -176.71 -72.5434 175.995
RightUpLeg  -30.9037 2.54453 -2.67246
RightLeg  37.6885 1.7762 1.21837
RightFoot  -1.94112 -0.620208 7.37532
RightToes  -2.32831e-009 0 -3.6325e-017
Spine  10.5062 -0.505333 -4.95979
Spine1  5.16873 -1.30924 1.38617
HEad  -9.35441 -12.4735 -0.513228
LeftShoulder1  -0.754394 5.44579 -32.6903
LeftArm  3.76275 13.1735 -42.307
LeftForeArm  42.7183 -47.7656 -9.23477
LeftHand  -0.512224 1.66508 5.59517
RightShoulder  -1.1482 -6.67962 29.6386
RightArm  26.2655 -21.977 32.5036
RightForeArm  10.3733 19.7704 4.67764
RightHand  0.11313 6.93092 0.693996
LeftUpLeg  5.33467 6.80568 -7.99835
LeftLeg  19.3746 10.3639 3.2574
LeftFoot  -27.0925 0.497381 2.41691
LeftToes  8.91272e-011 -1.70619e-011 7.36378e-012
745
root  80.2087 37.1186 -4.36142 -176.806 -74.4289 176.484
RightUpLeg  -31.3798 1.7826 -1.08306
RightLeg  39.375 1.61414 1.15304
RightFoot  -1.9687 -0.568823 6.76171
RightToes  -2.32831e-009 0 -3.6325e-017
Spine  9.57013 -0.820903 -5.7714
Spine1  5.57997 -1.83061 2.05315
HEad  -8.96376 -13.0354 0.621349
LeftShoulder1  -0.754646 5.4368 -32.8753
LeftArm  3.70721 15.0388 -41.4487
LeftForeArm  42.2974 -48.9178 -9.71972
LeftHand  -0.391757 10.8961 -9.73473
RightShoulder  -1.13526 -6.65914 29.4613
RightArm  23.1631 -22.1955 33.2451
RightForeArm  7.28577 20.3873 4.59747
RightHand  -0.0327672 6.06703 -0.637731
LeftUpLeg  5.28699 6.36739 -7.4683
LeftLeg  18.7143 8.63533 2.69349
LeftFoot  -26.6412 0.491624 2.46535
LeftToes  8.91272e-011 -1.70619e-011 7.36378e-012
746
root  80.1574 37.1808 -4.33544 -176.478 -75.5447 176.128
RightUpLeg  -31.4073 0.987156 0.535993
RightLeg  39.4168 1.3526 0.924117
RightFoot  -2.81357 -0.519537 6.71268
RightToes  -2.32831e-009 0 -3.6325e-017
Spine  9.6292 -0.754198 -6.22591
Spine1  5.35121 -1.76072 1.9379
HEad  -9.26493 -14.1648 0.988134
LeftShoulder1  -0.79273 5.52094 -33.1357
LeftArm  4.46754 15.0858 -40.9243
LeftForeArm  40.7461 -45.7883 -8.64337
LeftHand  -0.15655 6.54918 -2.5244
RightShoulder  -1.12706 -6.62497 29.5908
RightArm  21.7275 -22.2336 34.2299
RightForeArm  5.2444 21.2454 4.5851
RightHand  -0.0538599 7.27096 -0.969094
LeftUpLeg  5.74902 6.27236 -7.24326
LeftLeg  18.0117 7.50105 2.12696
LeftFoot  -26.3126 0.49406 2.55713
LeftToes  8.91272e-011 -1.70619e-011 7.36378e-012
747
root  80.0597 37.2221 -4.28607 -175.476 -77.141 175.231
RightUpLeg  -31.5425 -0.0557587 1.82379
RightLeg  37.9094 1.3608 0.876682
RightFoot  -3.66496 -0.504678 7.13447
RightToes  -2.32831e-009 0 -3.6325e-017
Spine  10.4665 -0.558393 -6.51678
Spine1  4.21195 -1.60897 2.21915
HEad  -9.52191 -15.9742 1.00778
LeftShoulder1  -0.787503 5.48129 -33.6477
LeftArm  5.10233 13.9872 -40.6352
LeftForeArm  35.7077 -44.7046 -8.60716
LeftHand  0.00766221 5.2879 10.0082
RightShoulder  -1.12323 -6.60082 29.7493
RightArm  22.6517 -22.2036 34.9193
RightForeArm  5.22739 21.6212 4.60714
RightHand  0.130048 9.91637 0.591536
LeftUpLeg  6.06988 5.55327 -7.37638
LeftLeg  17.389 5.80949 1.75748
LeftFoot  -26.0002 0.553194 3.08246
LeftToes  8.91272e-011 -1.70619e-011 7.36378e-012
748
root  79.8106 37.2247 -4.25165 -175.315 -78.0875 175.604
RightUpLeg  -31.9115 0.47682 3.04344
RightLeg  35.153 1.10128 0.58793
RightFoot  -4.41107 -0.442122 6.79163
RightToes  -2.32831e-009 0 -3.6325e-017
Spine  12.8185 0.485993 -7.04286
Spine1  -0.0615107 -0.794938 3.77297
HEad  -7.74228 -17.8787 0.550572
LeftShoulder1  -0.848237 5.52205 -35.8059
LeftArm  7.2427 13.0333 -38.7099
LeftForeArm  36.752 -45.1845 -8.70567
LeftHand  0.0294447 7.03509 4.52081
RightShoulder  -1.21443 -6.84372 29.8442
RightArm  26.8226 -22.9165 34.4132
RightForeArm  4.21101 22.4046 4.70963
RightHand  -0.0649356 8.42671 -0.920444
LeftUpLeg  6.15839 5.65754 -7.05735
LeftLeg  16.9367 4.87741 1.34664
LeftFoot  -26.0129 0.565231 3.17383
LeftToes  8.91272e-011 -1.70619e-011 7.36378e-012
